<?xml version="1.0" standalone="no"?>
<!DOCTYPE svg PUBLIC "-//W3C//DTD SVG 20010904//EN"
 "http://www.w3.org/TR/2001/REC-SVG-20010904/DTD/svg10.dtd">
<svg version="1.0" xmlns="http://www.w3.org/2000/svg"
 width="1024.000000pt" height="1024.000000pt" viewBox="0 0 1024.000000 1024.000000"
 preserveAspectRatio="xMidYMid meet">
<metadata>
Created by potrace 1.11, written by Peter Selinger 2001-2013
</metadata>
<g transform="translate(0.000000,1024.000000) scale(0.100000,-0.100000)"
fill="#000000" stroke="none">
<path d="M1214 8995 c-4 -8 -13 -15 -21 -15 -8 0 -12 4 -8 9 3 5 -8 3 -25 -6
-17 -8 -38 -12 -48 -8 -9 3 -13 3 -9 -1 10 -10 -83 -45 -96 -37 -6 3 -7 1 -3
-6 4 -6 0 -14 -11 -18 -10 -4 -23 -13 -29 -21 -6 -8 -16 -12 -23 -8 -7 5 -10
2 -9 -6 2 -7 -3 -12 -9 -10 -7 1 -12 -4 -10 -10 1 -7 -4 -12 -11 -10 -8 1 -11
-2 -8 -7 8 -12 -18 -33 -29 -23 -5 4 -5 1 -1 -6 5 -8 0 -20 -12 -30 -10 -9
-17 -22 -15 -29 2 -6 -1 -15 -8 -19 -8 -5 -9 -3 -4 6 5 9 4 11 -4 6 -6 -4 -9
-11 -6 -16 3 -5 0 -20 -7 -35 -8 -18 -14 -22 -19 -13 -5 7 -6 -4 -2 -24 5 -33
3 -38 -13 -39 -11 0 -14 -3 -7 -5 13 -6 6 -66 -9 -75 -6 -4 -5 -8 3 -11 12 -5
12 -9 1 -28 -8 -12 -9 -19 -3 -15 6 3 11 -1 11 -10 0 -10 -5 -13 -12 -9 -10 6
-10 5 -1 -7 6 -8 13 -26 15 -39 2 -14 7 -31 11 -37 5 -7 6 -13 2 -13 -3 0 4
-18 16 -41 13 -26 16 -39 7 -34 -7 3 -5 0 5 -8 24 -20 21 -30 -5 -17 -22 11
-22 10 -4 -4 11 -9 24 -16 29 -16 4 0 6 -4 2 -9 -3 -5 4 -12 15 -16 16 -5 18
-10 10 -24 -11 -22 -4 -31 23 -31 11 0 17 -3 14 -7 -4 -3 3 -11 16 -18 14 -7
21 -18 19 -30 -3 -17 -2 -17 15 -5 10 8 15 10 11 6 -5 -5 1 -15 12 -23 11 -8
20 -21 20 -29 0 -8 6 -14 13 -14 6 0 23 -10 37 -21 l25 -21 -27 16 c-22 13
-26 13 -22 2 3 -8 16 -17 30 -20 13 -4 24 -11 24 -16 0 -5 -8 -7 -17 -3 -10 3
-15 3 -11 -2 4 -4 18 -9 30 -10 34 -4 35 -4 35 -20 0 -8 -5 -15 -11 -15 -6 0
-3 -5 7 -11 9 -6 14 -15 11 -21 -4 -7 -2 -8 4 -4 7 4 12 2 12 -5 0 -7 7 -4 16
7 8 10 13 14 10 8 -3 -7 1 -15 10 -18 10 -4 14 -12 10 -22 -5 -14 -4 -15 8 -5
11 9 16 9 22 0 4 -8 3 -9 -4 -5 -7 4 -12 2 -12 -3 0 -11 15 -15 34 -12 5 1 4
-4 -2 -11 -7 -10 -8 -18 0 -28 8 -12 9 -12 4 3 -3 9 -2 17 3 17 15 0 43 -39
36 -50 -4 -7 0 -10 10 -8 10 2 20 -3 23 -11 3 -8 0 -11 -7 -7 -7 5 -9 1 -5 -9
6 -14 8 -14 21 2 8 10 12 13 9 7 -3 -7 1 -15 10 -18 10 -4 14 -12 10 -22 -5
-14 -4 -15 9 -4 13 11 14 10 9 -5 -5 -12 -4 -16 4 -11 6 3 14 1 18 -5 4 -7 3
-9 -3 -6 -6 4 -13 0 -16 -8 -5 -11 -1 -12 18 -5 19 7 23 6 18 -6 -3 -8 -1 -14
4 -12 12 4 73 -48 66 -56 -10 -10 -11 -46 -1 -40 5 4 7 12 4 20 -8 20 11 17
26 -5 7 -10 16 -18 20 -17 3 0 10 -3 15 -8 4 -5 3 -6 -4 -2 -6 3 -14 2 -18 -4
-3 -5 1 -10 9 -10 9 0 16 -4 16 -10 0 -5 5 -10 11 -10 5 0 7 5 3 12 -4 7 -3 8
5 4 6 -4 9 -11 6 -16 -3 -5 0 -18 7 -29 10 -16 15 -18 28 -8 8 6 12 7 8 3 -5
-5 1 -15 12 -23 11 -8 20 -21 20 -29 0 -8 6 -14 13 -14 6 0 23 -10 37 -21 l25
-21 -27 16 c-22 13 -26 13 -22 2 3 -8 16 -17 30 -20 13 -4 24 -11 24 -16 0 -5
-8 -7 -17 -3 -10 3 -15 3 -11 -2 4 -4 18 -9 30 -10 34 -4 35 -4 35 -20 0 -8
-5 -15 -11 -15 -6 0 -3 -5 7 -11 9 -6 14 -15 11 -21 -4 -7 -2 -8 4 -4 7 4 12
2 12 -5 0 -7 7 -4 16 7 8 10 13 14 10 8 -3 -7 1 -15 10 -18 10 -4 14 -12 10
-22 -5 -14 -4 -15 9 -4 13 11 14 10 8 -5 -5 -14 -3 -17 9 -13 20 8 38 -10 31
-31 -4 -9 -2 -13 2 -8 10 9 75 -51 75 -70 0 -7 6 -13 13 -13 6 0 23 -10 37
-21 l25 -21 -27 16 c-22 13 -26 13 -22 2 3 -8 16 -17 30 -20 13 -4 24 -11 24
-16 0 -5 -8 -7 -17 -3 -10 3 -15 3 -11 -2 4 -4 18 -9 30 -10 34 -4 35 -4 35
-20 0 -8 -5 -15 -11 -15 -6 0 -3 -5 7 -11 9 -6 14 -15 11 -21 -4 -7 -2 -8 4
-4 7 4 12 2 12 -5 0 -7 7 -4 16 7 8 10 13 14 10 8 -3 -7 1 -15 10 -18 10 -4
14 -12 10 -22 -5 -14 -4 -15 8 -5 11 9 16 9 22 0 4 -8 3 -9 -4 -5 -7 4 -12 2
-12 -3 0 -11 15 -15 34 -12 5 1 4 -4 -2 -11 -7 -10 -8 -18 0 -28 8 -12 9 -12
4 3 -3 9 -2 17 3 17 13 0 45 -39 38 -47 -11 -10 32 -35 46 -27 8 5 7 2 -2 -9
-12 -15 -12 -17 3 -11 10 4 18 0 22 -10 3 -9 11 -13 18 -10 6 3 3 -1 -7 -9
-16 -13 -16 -15 -2 -21 9 -3 13 -10 10 -16 -4 -7 2 -7 19 0 20 7 24 6 19 -6
-3 -8 -1 -14 4 -12 12 4 73 -48 66 -56 -10 -10 -11 -46 -1 -40 5 4 7 12 4 20
-8 20 11 17 26 -5 7 -10 17 -19 21 -19 5 0 12 -4 15 -8 4 -4 2 -4 -5 0 -6 3
-14 2 -18 -4 -3 -5 1 -10 9 -10 9 0 16 -4 16 -10 0 -5 5 -10 11 -10 5 0 7 5 3
12 -4 7 -3 8 5 4 6 -4 9 -11 6 -16 -3 -5 0 -18 7 -29 10 -16 15 -18 27 -8 10
8 13 8 8 1 -4 -7 0 -14 8 -18 8 -3 15 -11 15 -17 0 -8 -4 -8 -15 1 -11 9 -19
10 -26 3 -8 -8 -7 -13 2 -18 8 -5 10 -4 5 3 -4 7 -2 12 4 12 6 0 13 -7 16 -15
6 -14 8 -13 21 2 8 10 12 13 9 7 -3 -7 1 -15 10 -18 10 -4 14 -12 10 -22 -5
-14 -4 -15 9 -4 13 11 14 10 9 -5 -5 -12 -4 -16 4 -11 6 3 16 -3 22 -14 6 -11
15 -18 21 -15 9 6 10 5 14 -33 1 -12 6 -26 10 -30 5 -4 5 1 2 11 -4 11 -1 17
8 17 8 0 14 -3 14 -7 -4 -23 2 -43 11 -38 6 4 7 11 4 17 -5 7 -2 8 5 4 7 -5
10 -11 7 -14 -3 -3 3 -11 14 -19 23 -16 27 -35 6 -27 -8 3 -16 1 -20 -4 -6
-10 30 -9 40 1 8 7 60 -54 56 -66 -2 -5 4 -7 12 -4 12 5 13 1 6 -19 -7 -17 -7
-23 0 -19 6 3 13 -1 16 -10 6 -14 8 -14 21 2 8 10 12 13 9 7 -3 -7 1 -15 10
-18 10 -4 14 -12 10 -22 -6 -15 -4 -15 11 -3 11 9 14 10 9 2 -8 -14 17 -57 27
-46 8 7 47 -25 47 -38 0 -5 -8 -6 -17 -3 -15 5 -15 4 -3 -4 10 -8 18 -7 28 0
7 6 12 7 11 2 -3 -19 1 -34 12 -34 5 0 7 5 3 12 -4 7 -3 8 5 4 9 -6 9 -11 0
-22 -10 -12 -9 -13 5 -8 10 4 18 0 22 -10 3 -9 11 -13 18 -10 6 3 2 -2 -8 -10
-11 -9 -14 -16 -7 -16 7 0 9 -5 5 -12 -4 -6 -3 -8 4 -4 6 3 15 -2 21 -11 6
-10 11 -13 11 -7 0 6 7 11 15 11 16 0 16 -1 20 -35 1 -12 6 -26 10 -30 5 -4 5
1 2 11 -4 9 -2 17 3 17 5 0 12 -11 16 -24 3 -14 12 -27 20 -30 11 -4 11 0 -2
22 l-16 27 21 -25 c11 -14 21 -31 21 -37 0 -7 6 -13 13 -13 19 0 79 -65 70
-75 -5 -4 -1 -6 8 -2 20 7 39 -10 32 -29 -3 -8 1 -14 9 -14 8 0 29 -15 47 -34
l33 -34 -29 -31 c-17 -17 -34 -27 -38 -23 -5 4 -5 2 -2 -4 8 -14 -36 -57 -49
-47 -5 5 -6 4 -2 -1 10 -11 -11 -38 -23 -30 -5 3 -8 0 -7 -8 2 -7 -3 -12 -9
-11 -7 2 -12 -3 -10 -10 1 -6 -4 -11 -11 -9 -8 1 -11 -1 -8 -6 7 -12 -68 -84
-78 -75 -4 5 -6 1 -4 -7 2 -8 -3 -14 -10 -12 -8 1 -11 -2 -8 -7 8 -12 -18 -33
-29 -23 -5 4 -5 2 -2 -4 7 -12 -42 -60 -56 -56 -5 1 -6 -2 -3 -7 7 -11 -19
-33 -28 -23 -4 4 -6 0 -4 -8 2 -8 -3 -14 -10 -12 -8 1 -11 -2 -8 -7 8 -12 -18
-33 -29 -23 -5 4 -5 2 -2 -4 6 -11 -32 -50 -45 -46 -5 1 -7 -4 -5 -11 1 -6 -4
-11 -11 -9 -8 1 -11 -2 -8 -7 8 -12 -18 -33 -29 -23 -5 4 -5 2 -2 -4 8 -14
-26 -47 -38 -37 -4 5 -5 3 -2 -3 8 -14 -17 -37 -27 -26 -4 4 -6 0 -4 -8 2 -8
-3 -14 -10 -12 -8 1 -11 -2 -8 -7 8 -12 -18 -33 -29 -23 -5 4 -5 2 -2 -4 8
-14 -17 -37 -27 -26 -4 4 -6 0 -4 -8 2 -8 -3 -14 -10 -12 -8 1 -11 -1 -8 -6 6
-10 -35 -48 -47 -44 -5 1 -6 -2 -3 -7 8 -12 -18 -33 -29 -23 -5 4 -5 2 -2 -4
6 -11 -33 -50 -46 -46 -5 1 -6 -2 -3 -7 7 -11 -19 -33 -28 -23 -4 4 -6 0 -4
-8 2 -8 -3 -14 -10 -12 -8 1 -11 -2 -8 -7 8 -12 -18 -33 -29 -23 -5 4 -5 2 -2
-4 6 -11 -32 -50 -45 -46 -5 1 -7 -4 -5 -11 1 -6 -4 -11 -11 -9 -8 1 -11 -2
-8 -7 8 -12 -18 -33 -29 -23 -5 4 -5 2 -2 -4 8 -14 -17 -37 -27 -26 -4 4 -6 0
-4 -8 2 -8 -3 -14 -10 -12 -8 1 -11 -2 -8 -7 8 -12 -18 -33 -29 -23 -5 4 -5 2
-2 -4 8 -14 -17 -37 -28 -26 -5 4 -5 2 -2 -4 8 -14 -17 -37 -28 -26 -5 4 -5 2
-2 -4 6 -11 -33 -50 -46 -46 -5 1 -6 -2 -3 -7 8 -12 -18 -33 -29 -23 -5 4 -5
2 -2 -4 6 -11 -32 -50 -45 -46 -5 1 -7 -4 -5 -11 1 -6 -4 -11 -11 -9 -8 1 -11
-2 -8 -7 8 -12 -18 -33 -29 -23 -5 4 -5 2 -2 -4 8 -14 -17 -37 -27 -26 -4 4
-6 0 -4 -8 2 -8 -3 -14 -10 -12 -8 1 -11 -2 -8 -7 8 -12 -18 -33 -29 -23 -5 4
-5 2 -2 -4 8 -14 -26 -47 -38 -37 -4 5 -5 3 -2 -3 8 -14 -17 -37 -27 -26 -4 4
-6 0 -4 -8 2 -8 -3 -14 -10 -12 -8 1 -11 -1 -8 -6 6 -10 -35 -48 -47 -44 -5 1
-6 -2 -3 -7 7 -11 -19 -33 -28 -23 -4 4 -6 0 -4 -8 2 -8 -3 -14 -10 -12 -8 1
-11 -2 -8 -7 7 -11 -19 -33 -28 -23 -4 4 -6 2 -4 -3 4 -15 -43 -65 -56 -58 -6
3 -8 3 -4 -2 10 -11 -11 -37 -23 -29 -5 3 -8 0 -7 -8 2 -7 -3 -12 -9 -11 -7 2
-12 -3 -10 -10 1 -6 -5 -11 -13 -9 -8 2 -12 0 -8 -4 10 -9 -12 -35 -23 -28 -5
3 -8 2 -7 -3 4 -13 -35 -52 -46 -46 -6 3 -8 3 -4 -2 10 -11 -11 -37 -23 -29
-5 3 -8 2 -7 -3 4 -12 -34 -53 -44 -47 -5 3 -7 0 -6 -8 2 -7 -4 -12 -12 -10
-8 2 -12 0 -8 -4 11 -10 -12 -35 -26 -27 -6 3 -8 3 -4 -2 10 -11 -11 -37 -23
-29 -5 3 -8 0 -7 -8 2 -7 -4 -12 -12 -10 -8 2 -12 0 -8 -4 11 -10 -12 -35 -26
-27 -6 3 -8 2 -3 -2 10 -12 -23 -46 -37 -38 -6 3 -8 3 -4 -2 10 -11 -11 -37
-23 -29 -5 3 -8 0 -7 -8 2 -7 -3 -12 -9 -11 -7 2 -12 0 -11 -5 4 -13 -35 -51
-46 -45 -6 3 -8 3 -4 -2 10 -11 -11 -37 -23 -29 -5 3 -8 0 -7 -8 2 -7 -4 -12
-12 -10 -8 2 -12 0 -8 -4 10 -9 -12 -35 -23 -28 -5 3 -8 2 -7 -3 4 -14 -44
-63 -56 -56 -6 3 -8 3 -4 -2 10 -11 -11 -37 -23 -29 -5 3 -8 0 -7 -8 2 -7 -3
-12 -10 -10 -8 1 -11 -1 -8 -6 8 -13 -68 -84 -80 -75 -5 5 -6 4 -1 -1 10 -13
-23 -47 -37 -39 -6 3 -8 3 -4 -2 11 -11 -12 -36 -25 -28 -6 4 -7 1 -2 -7 6
-10 4 -12 -10 -6 -15 5 -16 4 -5 -9 12 -15 4 -20 -22 -16 -4 0 -5 -6 -2 -14 4
-8 1 -15 -5 -15 -6 0 -11 -5 -11 -11 0 -6 -8 -23 -19 -37 -10 -15 -24 -46 -31
-69 -7 -23 -16 -40 -20 -38 -4 2 -5 -7 -2 -22 4 -20 2 -24 -9 -18 -10 6 -11 5
-4 -3 6 -6 8 -44 5 -91 -3 -43 -2 -77 2 -74 7 4 12 -28 11 -64 -1 -7 2 -13 6
-13 4 0 13 -16 20 -36 7 -20 26 -55 41 -78 16 -22 26 -44 23 -49 -2 -4 0 -6 5
-5 11 3 78 -63 75 -74 -2 -4 3 -5 10 -2 7 2 22 -5 34 -16 12 -11 29 -20 37
-20 8 0 17 -4 20 -8 10 -16 154 -44 210 -40 33 2 56 -1 56 -7 0 -5 4 -4 9 4 5
8 16 11 24 8 9 -3 17 -2 19 3 2 4 14 10 28 12 14 1 31 9 38 16 7 6 22 12 32
12 10 0 22 5 25 10 4 6 12 7 18 4 7 -4 9 -4 5 1 -7 7 32 45 46 45 4 0 29 24
56 53 42 43 52 50 61 37 8 -12 9 -11 5 5 -4 15 13 38 70 95 62 62 76 72 85 60
9 -12 10 -12 5 4 -10 28 500 538 529 530 16 -4 17 -3 5 5 -22 15 366 403 395
395 16 -4 17 -3 5 5 -12 9 2 27 78 103 76 76 95 90 103 78 8 -12 9 -11 5 5 -8
29 300 337 315 315 8 -12 9 -11 5 5 -8 29 502 539 530 529 15 -5 16 -4 4 5
-12 8 10 35 124 148 76 76 136 133 132 126 -3 -6 -2 -14 3 -17 5 -4 8 2 6 11
-3 22 14 45 28 36 6 -3 7 -1 3 5 -10 17 28 34 44 19 12 -10 12 -9 1 6 -18 22
-9 32 17 18 17 -9 19 -8 15 8 -6 23 25 61 43 54 8 -3 11 -10 7 -16 -3 -6 -1
-7 6 -3 8 6 9 12 2 20 -13 15 5 36 31 36 10 0 18 5 18 11 0 5 -5 7 -12 3 -7
-4 -8 -3 -4 5 6 9 11 9 22 0 8 -6 17 -9 21 -5 3 3 1 6 -4 6 -18 0 -9 23 20 54
16 17 32 26 42 22 12 -4 13 -2 6 13 -7 12 -6 22 1 29 16 16 31 15 22 0 -5 -9
-2 -9 9 1 19 15 23 26 6 15 -7 -4 -10 -1 -7 7 3 8 12 13 21 13 9 -1 15 2 12 6
-8 13 6 40 20 40 7 0 15 -3 18 -7 2 -5 2 -2 1 5 -5 18 7 43 17 36 5 -3 6 -11
2 -17 -4 -7 2 -5 13 3 29 22 30 24 12 17 -21 -7 -22 -3 -8 24 6 10 17 19 25
19 8 0 15 5 15 11 0 5 -5 7 -11 4 -6 -4 -5 2 3 14 7 12 16 21 20 21 5 0 8 7 8
15 0 8 4 15 10 15 5 0 9 3 8 8 -1 4 1 22 5 40 5 23 11 31 19 26 10 -5 10 -4 1
6 -7 8 -9 20 -3 35 5 13 6 26 2 31 -4 4 2 4 12 0 16 -5 17 -4 6 9 -10 12 -10
15 1 15 8 0 5 6 -7 15 -10 8 -14 15 -7 15 7 0 10 7 7 15 -5 11 -2 13 12 8 14
-5 13 -2 -5 16 -19 19 -20 25 -9 39 9 11 10 14 1 8 -9 -5 -13 0 -13 14 0 14 4
19 13 14 6 -4 5 1 -4 12 -24 28 -34 48 -21 40 6 -3 14 -1 18 6 4 7 4 10 -1 6
-4 -4 -14 -3 -22 3 -11 10 -11 15 -1 27 9 11 10 14 1 9 -11 -7 -42 37 -44 60
0 5 -7 12 -15 16 -8 5 -12 12 -9 18 4 5 -2 9 -11 9 -10 0 -15 2 -12 5 6 7 -60
75 -73 75 -5 0 -9 4 -9 9 0 13 -59 71 -72 71 -6 0 -9 3 -5 6 3 3 -19 30 -49
60 -30 31 -52 60 -48 66 4 6 3 8 -2 5 -6 -3 -16 -1 -24 4 -13 8 -13 10 0 20
12 9 12 10 -4 5 -13 -5 -31 6 -62 36 -23 23 -41 45 -38 50 3 5 2 8 -3 7 -21
-4 -32 3 -38 21 -3 11 -12 20 -20 20 -8 0 -17 9 -20 20 -3 11 -11 20 -16 20
-13 0 -65 61 -62 72 2 4 0 7 -5 7 -20 -3 -31 3 -37 21 -3 11 -12 20 -20 20
-13 0 -30 28 -26 43 1 5 -2 6 -7 3 -12 -7 -84 68 -75 79 5 4 3 5 -3 2 -6 -3
-20 4 -32 16 -11 12 -34 34 -51 49 -17 15 -31 32 -31 38 0 5 -7 10 -15 10 -8
0 -15 5 -15 10 0 6 -11 20 -25 32 -13 11 -22 26 -18 31 3 6 2 7 -4 4 -13 -8
-86 67 -76 78 5 4 3 5 -3 2 -14 -8 -47 26 -37 37 5 4 3 7 -2 6 -22 -5 -34 1
-40 20 -3 11 -12 20 -20 20 -13 0 -30 28 -26 43 1 5 -2 6 -7 3 -12 -7 -84 68
-75 79 5 4 3 5 -3 2 -6 -3 -21 5 -32 18 -12 14 -26 25 -32 25 -5 0 -10 7 -10
15 0 8 -5 15 -11 15 -13 0 -65 61 -61 72 1 4 -1 7 -5 7 -21 -3 -32 3 -38 21
-3 11 -13 20 -21 20 -8 0 -14 5 -14 10 0 6 -11 20 -25 32 -13 11 -22 26 -18
31 3 6 1 7 -4 4 -13 -8 -46 27 -36 37 5 4 4 7 -2 6 -22 -5 -34 1 -40 20 -3 11
-12 20 -20 20 -13 0 -30 28 -26 43 1 5 -2 6 -7 3 -12 -7 -84 68 -75 79 5 4 3
5 -3 2 -6 -3 -21 5 -32 18 -12 14 -26 25 -32 25 -5 0 -10 7 -10 15 0 8 -5 15
-11 15 -13 0 -65 61 -61 72 1 4 -1 7 -5 7 -21 -3 -32 3 -38 21 -3 11 -12 20
-20 20 -13 0 -30 28 -26 43 1 5 -2 6 -7 3 -12 -7 -84 68 -75 79 5 4 3 5 -3 2
-6 -3 -20 4 -32 16 -11 12 -34 34 -51 49 -17 15 -31 32 -31 38 0 5 -7 10 -15
10 -8 0 -15 5 -15 10 0 6 -11 20 -25 32 -13 11 -22 26 -18 31 3 6 2 7 -4 4
-11 -7 -86 66 -78 76 3 4 2 5 -2 2 -9 -7 -44 26 -37 37 3 4 2 8 -3 7 -21 -4
-32 3 -38 21 -3 11 -12 20 -20 20 -13 0 -30 28 -26 43 1 5 -2 6 -7 3 -12 -7
-84 68 -75 79 5 4 3 5 -3 2 -6 -3 -21 5 -32 18 -12 14 -26 25 -32 25 -5 0 -10
7 -10 15 0 8 -5 15 -11 15 -13 0 -65 61 -61 72 1 4 -1 7 -5 7 -21 -3 -32 3
-38 21 -3 11 -13 20 -21 20 -8 0 -14 5 -14 10 0 6 -11 20 -25 32 -13 11 -22
26 -18 31 3 6 1 7 -4 4 -13 -8 -46 27 -36 37 5 4 4 7 -2 6 -22 -5 -34 1 -40
20 -3 11 -12 20 -20 20 -14 0 -30 28 -26 45 2 6 0 7 -4 3 -4 -4 -39 20 -77 53
-39 32 -77 59 -85 59 -8 0 -11 5 -7 12 4 6 3 8 -4 5 -15 -10 -43 3 -35 16 3 5
2 7 -3 4 -5 -3 -40 1 -77 9 -37 7 -71 13 -75 13 -21 -4 -32 2 -26 14 4 6 -3 3
-16 -8 -20 -17 -23 -18 -17 -2 4 9 4 17 1 17 -2 0 -7 -7 -10 -15z m-327 -811
c-3 -3 -12 -4 -19 -1 -8 3 -5 6 6 6 11 1 17 -2 13 -5z m248 -255 c11 -17 -1
-21 -15 -4 -8 9 -8 15 -2 15 6 0 14 -5 17 -11z m640 -640 c11 -17 -1 -21 -15
-4 -8 9 -8 15 -2 15 6 0 14 -5 17 -11z m320 -320 c11 -17 -1 -21 -15 -4 -8 9
-8 15 -2 15 6 0 14 -5 17 -11z m240 -239 c3 -5 2 -10 -4 -10 -5 0 -13 5 -16
10 -3 6 -2 10 4 10 5 0 13 -4 16 -10z m565 -571 c0 -6 -4 -7 -10 -4 -5 3 -10
11 -10 16 0 6 5 7 10 4 6 -3 10 -11 10 -16z m235 -230 c11 -17 -1 -21 -15 -4
-8 9 -8 15 -2 15 6 0 14 -5 17 -11z"/>
<path d="M770 8340 c0 -5 5 -10 11 -10 5 0 7 5 4 10 -3 6 -8 10 -11 10 -2 0
-4 -4 -4 -10z"/>
<path d="M911 8124 c0 -11 3 -14 6 -6 3 7 2 16 -1 19 -3 4 -6 -2 -5 -13z"/>
<path d="M935 8081 c-3 -5 0 -13 6 -17 8 -5 9 -3 4 6 -6 9 -1 10 16 5 19 -5
21 -4 9 4 -19 13 -27 14 -35 2z"/>
<path d="M1241 7794 c0 -11 3 -14 6 -6 3 7 2 16 -1 19 -3 4 -6 -2 -5 -13z"/>
<path d="M1412 7630 c7 -11 19 -22 28 -25 8 -4 4 5 -9 19 -29 31 -36 33 -19 6z"/>
<path d="M1476 7555 c-3 -8 -1 -15 4 -15 6 0 10 7 10 15 0 8 -2 15 -4 15 -2 0
-6 -7 -10 -15z"/>
<path d="M1575 7441 c-3 -5 0 -13 6 -17 8 -5 9 -3 4 6 -6 9 -1 10 16 5 19 -5
21 -4 9 4 -19 13 -27 14 -35 2z"/>
<path d="M1841 7196 c-10 -12 -8 -13 8 -9 12 3 18 9 15 14 -7 12 -10 11 -23
-5z"/>
<path d="M1892 7150 c7 -11 17 -20 22 -20 5 0 1 9 -9 20 -10 11 -20 20 -22 20
-2 0 2 -9 9 -20z"/>
<path d="M1915 7110 c-3 -6 1 -7 9 -4 18 7 21 14 7 14 -6 0 -13 -4 -16 -10z"/>
<path d="M2201 6834 c0 -11 3 -14 6 -6 3 7 2 16 -1 19 -3 4 -6 -2 -5 -13z"/>
<path d="M2372 6670 c7 -11 19 -22 28 -25 8 -4 4 5 -9 19 -29 31 -36 33 -19 6z"/>
<path d="M2436 6595 c-3 -8 -1 -15 4 -15 6 0 10 7 10 15 0 8 -2 15 -4 15 -2 0
-6 -7 -10 -15z"/>
<path d="M2640 6405 c0 -5 5 -17 10 -25 5 -8 10 -10 10 -5 0 6 -5 17 -10 25
-5 8 -10 11 -10 5z"/>
<path d="M2740 6280 c0 -5 7 -7 15 -4 8 4 15 8 15 10 0 2 -7 4 -15 4 -8 0 -15
-4 -15 -10z"/>
<path d="M2806 6237 c2 -7 14 -19 27 -26 21 -13 21 -12 -2 13 -27 29 -33 32
-25 13z"/>
<path d="M2988 6043 c7 -3 16 -2 19 1 4 3 -2 6 -13 5 -11 0 -14 -3 -6 -6z"/>
<path d="M3266 5763 c-6 -14 -5 -15 5 -6 7 7 10 15 7 18 -3 3 -9 -2 -12 -12z"/>
<path d="M3290 5752 c0 -4 10 -13 23 -21 22 -14 22 -14 3 8 -20 22 -26 25 -26
13z"/>
<path d="M3347 5689 c-4 -16 -3 -18 9 -8 7 6 11 15 8 20 -8 13 -11 11 -17 -12z"/>
<path d="M3386 5643 c-6 -14 -5 -15 5 -6 7 7 10 15 7 18 -3 3 -9 -2 -12 -12z"/>
<path d="M3410 5632 c0 -4 10 -13 23 -21 22 -14 22 -14 3 8 -20 22 -26 25 -26
13z"/>
<path d="M3390 5616 c0 -2 8 -10 18 -17 15 -13 16 -12 3 4 -13 16 -21 21 -21
13z"/>
<path d="M4639 5433 c-13 -16 -12 -17 4 -4 16 13 21 21 13 21 -2 0 -10 -8 -17
-17z"/>
<path d="M4390 5136 c0 -2 8 -10 18 -17 15 -13 16 -12 3 4 -13 16 -21 21 -21
13z"/>
<path d="M4357 5085 c-4 -8 -3 -16 1 -19 4 -3 9 4 9 15 2 23 -3 25 -10 4z"/>
<path d="M4320 5055 c0 -2 6 -8 13 -14 10 -8 14 -7 14 2 0 8 -6 14 -14 14 -7
0 -13 -1 -13 -2z"/>
<path d="M4255 4990 c-3 -6 1 -7 9 -4 18 7 21 14 7 14 -6 0 -13 -4 -16 -10z"/>
<path d="M4213 4952 c-8 -14 -8 -19 1 -19 7 0 13 9 13 19 1 10 1 18 0 18 -1 0
-7 -8 -14 -18z"/>
<path d="M3940 4680 c-9 -6 -10 -10 -3 -10 6 0 15 5 18 10 8 12 4 12 -15 0z"/>
<path d="M3735 4480 c-3 -5 -1 -10 4 -10 6 0 11 5 11 10 0 6 -2 10 -4 10 -3 0
-8 -4 -11 -10z"/>
<path d="M3636 4373 c-6 -14 -5 -15 5 -6 7 7 10 15 7 18 -3 3 -9 -2 -12 -12z"/>
<path d="M3490 4240 c0 -5 5 -10 11 -10 5 0 7 5 4 10 -3 6 -8 10 -11 10 -2 0
-4 -4 -4 -10z"/>
<path d="M3396 4133 c-6 -14 -5 -15 5 -6 7 7 10 15 7 18 -3 3 -9 -2 -12 -12z"/>
<path d="M3156 3893 c-6 -14 -5 -15 5 -6 7 7 10 15 7 18 -3 3 -9 -2 -12 -12z"/>
<path d="M3076 3813 c-6 -14 -5 -15 5 -6 7 7 10 15 7 18 -3 3 -9 -2 -12 -12z"/>
<path d="M2836 3573 c-6 -14 -5 -15 5 -6 7 7 10 15 7 18 -3 3 -9 -2 -12 -12z"/>
<path d="M2676 3413 c-6 -14 -5 -15 5 -6 7 7 10 15 7 18 -3 3 -9 -2 -12 -12z"/>
<path d="M2500 3240 c-9 -6 -10 -10 -3 -10 6 0 15 5 18 10 8 12 4 12 -15 0z"/>
<path d="M2260 3000 c-9 -6 -10 -10 -3 -10 6 0 15 5 18 10 8 12 4 12 -15 0z"/>
<path d="M2155 2900 c3 -5 8 -10 11 -10 2 0 4 5 4 10 0 6 -5 10 -11 10 -5 0
-7 -4 -4 -10z"/>
<path d="M2020 2760 c-9 -6 -10 -10 -3 -10 6 0 15 5 18 10 8 12 4 12 -15 0z"/>
<path d="M1915 2660 c-3 -5 -1 -10 4 -10 6 0 11 5 11 10 0 6 -2 10 -4 10 -3 0
-8 -4 -11 -10z"/>
<path d="M1796 2533 c-6 -14 -5 -15 5 -6 7 7 10 15 7 18 -3 3 -9 -2 -12 -12z"/>
<path d="M775 2521 c-3 -5 -2 -12 3 -15 5 -3 9 1 9 9 0 17 -3 19 -12 6z"/>
<path d="M5255 2249 c-4 -6 -5 -12 -2 -15 2 -3 7 2 10 11 7 17 1 20 -8 4z"/>
<path d="M5515 2251 c-3 -5 -2 -12 3 -15 5 -3 9 1 9 9 0 17 -3 19 -12 6z"/>
<path d="M5575 2251 c-3 -5 -2 -12 3 -15 5 -3 9 1 9 9 0 17 -3 19 -12 6z"/>
<path d="M5835 2249 c-4 -6 -5 -12 -2 -15 2 -3 7 2 10 11 7 17 1 20 -8 4z"/>
<path d="M5895 2249 c-4 -6 -5 -12 -2 -15 2 -3 7 2 10 11 7 17 1 20 -8 4z"/>
<path d="M6155 2251 c-3 -5 -2 -12 3 -15 5 -3 9 1 9 9 0 17 -3 19 -12 6z"/>
<path d="M6215 2251 c-3 -5 -2 -12 3 -15 5 -3 9 1 9 9 0 17 -3 19 -12 6z"/>
<path d="M6475 2249 c-4 -6 -5 -12 -2 -15 2 -3 7 2 10 11 7 17 1 20 -8 4z"/>
<path d="M6535 2249 c-4 -6 -5 -12 -2 -15 2 -3 7 2 10 11 7 17 1 20 -8 4z"/>
<path d="M6795 2251 c-3 -5 -2 -12 3 -15 5 -3 9 1 9 9 0 17 -3 19 -12 6z"/>
<path d="M6855 2251 c-3 -5 -2 -12 3 -15 5 -3 9 1 9 9 0 17 -3 19 -12 6z"/>
<path d="M7115 2249 c-4 -6 -5 -12 -2 -15 2 -3 7 2 10 11 7 17 1 20 -8 4z"/>
<path d="M7175 2249 c-4 -6 -5 -12 -2 -15 2 -3 7 2 10 11 7 17 1 20 -8 4z"/>
<path d="M7435 2251 c-3 -5 -2 -12 3 -15 5 -3 9 1 9 9 0 17 -3 19 -12 6z"/>
<path d="M7495 2251 c-3 -5 -2 -12 3 -15 5 -3 9 1 9 9 0 17 -3 19 -12 6z"/>
<path d="M7833 2245 c0 -8 4 -15 9 -15 4 0 8 4 8 9 0 6 -4 12 -8 15 -5 3 -9
-1 -9 -9z"/>
<path d="M8133 2245 c0 -8 4 -12 9 -9 5 3 6 10 3 15 -9 13 -12 11 -12 -6z"/>
<path d="M8229 2243 c-13 -16 -12 -17 4 -4 16 13 21 21 13 21 -2 0 -10 -8 -17
-17z"/>
<path d="M8291 2247 c-6 -8 -7 -17 -3 -22 4 -4 0 -5 -8 -3 -8 3 -14 11 -12 17
1 7 -2 10 -8 6 -6 -3 -8 -10 -6 -14 6 -10 -66 -7 -83 3 -10 6 -12 5 -7 -3 8
-12 -33 -9 -55 5 -7 4 -9 3 -6 -3 4 -5 -6 -10 -23 -10 -16 0 -27 4 -24 8 2 4
0 11 -6 14 -6 4 -9 1 -8 -6 2 -8 -14 -13 -46 -15 -44 -2 -47 -2 -30 13 17 14
17 14 -6 1 -15 -9 -53 -15 -98 -15 -65 -1 -71 1 -55 14 16 13 15 13 -7 0 -30
-17 -119 -19 -139 -3 -9 6 -12 7 -9 1 4 -7 -8 -10 -35 -10 -28 1 -41 6 -39 14
1 7 -2 10 -8 6 -6 -3 -7 -11 -4 -17 4 -6 1 -8 -7 -6 -8 3 -13 11 -11 17 1 7
-2 10 -8 6 -6 -3 -8 -9 -6 -13 9 -14 -101 -7 -120 8 -18 14 -18 14 -4 -4 14
-18 14 -19 -9 -7 -13 7 -21 8 -17 3 9 -15 -39 -8 -61 9 -16 12 -17 12 -6 -2
11 -14 7 -16 -40 -14 -29 0 -59 5 -66 10 -10 5 -12 4 -7 -4 11 -16 -44 -6 -57
11 -6 9 -7 8 -3 -5 4 -14 1 -16 -21 -13 -14 3 -31 11 -36 18 -6 9 -7 8 -3 -4
6 -19 -9 -25 -19 -8 -5 8 -11 8 -19 1 -9 -7 -17 -7 -26 2 -7 6 -10 7 -7 2 4
-7 -10 -10 -36 -10 -28 1 -41 6 -39 14 1 7 -2 10 -8 6 -6 -3 -7 -11 -4 -17 4
-6 1 -8 -7 -6 -8 3 -13 11 -11 17 1 7 -2 10 -8 6 -6 -3 -8 -9 -6 -13 9 -14
-101 -7 -120 8 -18 14 -18 14 -4 -4 14 -18 14 -19 -9 -7 -13 7 -21 8 -17 3 9
-15 -39 -8 -61 9 -16 12 -17 12 -6 -2 11 -14 7 -16 -40 -14 -29 0 -59 5 -66
10 -10 5 -12 4 -7 -4 11 -16 -44 -6 -57 11 -6 9 -7 8 -3 -5 4 -14 1 -16 -21
-13 -14 3 -31 11 -36 18 -6 9 -7 8 -3 -4 6 -19 -9 -25 -19 -8 -5 8 -11 8 -19
1 -9 -7 -17 -7 -26 2 -7 6 -10 7 -7 2 4 -7 -10 -10 -36 -10 -28 1 -41 6 -39
14 1 7 -2 10 -8 6 -6 -3 -7 -11 -4 -17 4 -6 1 -8 -7 -6 -8 3 -13 11 -11 17 1
7 -2 10 -8 6 -6 -3 -8 -9 -6 -13 9 -14 -101 -7 -120 8 -18 14 -18 14 -4 -4 14
-18 14 -19 -9 -7 -13 7 -21 8 -17 3 9 -15 -39 -8 -61 9 -16 12 -17 12 -6 -2
11 -14 7 -16 -40 -14 -29 0 -59 5 -66 10 -10 5 -12 4 -7 -4 11 -16 -44 -6 -57
11 -6 9 -7 8 -3 -5 4 -14 1 -16 -21 -13 -14 3 -31 11 -36 18 -6 9 -7 8 -3 -4
6 -19 -9 -25 -19 -8 -5 8 -11 8 -19 1 -9 -7 -17 -7 -26 2 -7 6 -10 7 -7 2 4
-7 -10 -10 -36 -10 -28 1 -41 6 -39 14 1 7 -2 10 -8 6 -6 -3 -7 -11 -4 -17 4
-6 1 -8 -7 -6 -8 3 -13 11 -11 17 1 7 -2 10 -8 6 -6 -3 -8 -9 -6 -13 9 -14
-101 -7 -120 8 -18 14 -18 14 -4 -4 14 -18 14 -19 -9 -7 -13 7 -21 8 -17 3 9
-15 -39 -8 -61 9 -16 12 -17 12 -6 -2 11 -14 7 -16 -40 -14 -29 0 -59 5 -66
10 -10 5 -12 4 -7 -4 11 -16 -44 -6 -57 11 -6 10 -7 8 -4 -4 5 -13 0 -16 -20
-14 -13 2 -29 9 -35 17 -8 11 -9 10 -4 -3 5 -18 -5 -24 -18 -11 -10 10 -37 13
-31 3 3 -4 -13 -7 -35 -5 -22 1 -43 -1 -46 -6 -8 -14 -36 -11 -28 4 4 6 -3 2
-15 -10 -23 -24 -41 -30 -41 -13 0 6 -5 10 -11 10 -5 0 -7 -5 -4 -11 4 -6 -2
-13 -14 -16 -12 -3 -21 -9 -21 -14 0 -5 -4 -9 -10 -9 -5 0 -7 8 -4 18 2 9 -1
7 -7 -5 -7 -13 -16 -23 -21 -23 -5 0 -6 5 -2 12 4 7 3 8 -5 4 -6 -4 -10 -10
-7 -14 2 -4 -9 -20 -25 -35 -16 -16 -29 -23 -29 -18 0 6 -5 11 -11 11 -5 0 -8
-4 -4 -9 3 -5 -1 -16 -9 -24 -8 -8 -12 -17 -9 -21 3 -3 -6 -10 -21 -15 -14 -6
-26 -13 -26 -16 0 -4 5 -3 10 0 6 3 10 1 10 -4 0 -6 -7 -11 -16 -11 -9 0 -12
-5 -8 -12 5 -8 2 -9 -11 -4 -15 5 -16 4 -5 -9 10 -12 10 -15 -3 -15 -9 0 -19
-4 -22 -10 -4 -6 1 -7 11 -3 15 6 15 4 0 -19 -9 -13 -13 -28 -9 -33 5 -4 2 -5
-5 -1 -8 5 -13 3 -11 -5 4 -31 -1 -41 -18 -35 -15 5 -15 4 1 -9 20 -15 20 -15
0 -16 -18 0 -18 -1 1 -9 11 -5 15 -9 9 -9 -7 -1 -10 -28 -9 -80 1 -66 -1 -78
-13 -73 -10 3 -13 1 -8 -6 4 -7 14 -12 23 -12 13 0 14 -2 2 -17 -10 -11 -10
-14 -1 -9 8 5 12 1 12 -12 0 -10 9 -37 20 -60 23 -46 26 -67 8 -56 -7 4 -8 3
-4 -4 4 -6 14 -8 23 -5 12 5 15 2 10 -10 -3 -9 -1 -19 5 -23 7 -5 8 -2 3 6 -5
9 -4 11 4 6 9 -6 9 -11 -1 -24 -11 -14 -10 -15 6 -9 14 6 17 4 12 -8 -4 -11
-2 -14 6 -9 8 5 9 2 4 -11 -5 -14 -3 -15 6 -7 9 7 17 6 25 -3 10 -11 10 -15 0
-18 -7 -3 -1 -6 13 -6 20 -1 22 -3 10 -11 -12 -8 -9 -10 13 -10 15 0 30 -7 33
-15 4 -8 11 -12 17 -8 6 4 8 0 4 -11 -4 -11 -3 -15 4 -11 14 9 66 -13 73 -31
3 -8 11 -14 18 -14 9 0 9 3 -2 11 -12 9 -12 10 3 5 10 -3 21 -6 23 -6 3 0 2
-6 -2 -12 -5 -9 -2 -9 9 1 12 9 17 10 17 2 0 -7 5 -9 10 -6 6 3 10 0 10 -7 0
-8 3 -9 8 -3 6 9 30 11 57 5 6 -1 14 -2 19 -1 5 1 13 -4 17 -11 7 -10 9 -10 9
0 0 6 7 12 15 12 8 0 15 -6 15 -12 0 -9 3 -9 9 1 5 8 16 11 26 8 9 -4 13 -11
10 -17 -4 -6 1 -7 10 -3 13 5 14 7 3 14 -9 6 -6 9 11 9 13 0 30 -8 37 -17 10
-13 13 -14 9 -3 -5 13 5 16 47 18 32 1 55 -3 60 -11 6 -9 8 -8 8 2 0 11 4 9
15 -5 13 -16 14 -16 9 -1 -4 11 -1 17 9 17 9 0 18 -8 20 -17 4 -17 5 -17 6 0
1 23 39 23 57 0 10 -13 13 -14 9 -3 -5 13 5 16 47 18 32 1 55 -3 60 -11 6 -9
8 -8 8 2 0 11 4 9 15 -5 11 -13 13 -14 9 -3 -4 12 1 17 20 17 16 0 23 -5 19
-12 -3 -6 0 -6 8 1 7 7 20 13 28 13 14 0 14 -1 1 -10 -9 -6 -10 -10 -3 -10 6
0 14 4 17 8 8 13 109 13 118 -1 6 -9 8 -8 8 2 0 11 4 9 15 -5 13 -16 14 -16 9
-1 -4 11 -1 17 9 17 9 0 18 -8 20 -18 4 -16 5 -16 6 1 1 23 39 23 57 0 10 -13
13 -14 9 -3 -5 13 5 16 47 18 32 1 55 -3 60 -11 6 -9 8 -8 8 2 0 11 4 9 15 -5
11 -13 13 -14 9 -3 -4 12 1 16 20 16 16 0 23 -4 19 -11 -3 -6 0 -6 8 2 7 6 20
12 28 12 14 0 14 -1 1 -10 -9 -6 -10 -10 -3 -10 6 0 14 4 17 8 8 13 109 13
118 -1 6 -9 8 -8 8 2 0 11 4 9 15 -5 13 -16 14 -16 9 -1 -4 11 -1 17 9 17 9 0
18 -8 20 -17 4 -17 5 -17 6 0 1 23 39 23 57 0 10 -13 13 -14 9 -3 -5 13 5 16
47 18 32 1 55 -3 60 -11 6 -9 8 -8 8 2 0 11 4 9 15 -5 11 -13 13 -14 9 -3 -4
12 1 17 20 17 16 -1 23 -5 19 -12 -3 -6 0 -6 8 2 7 6 20 12 28 12 14 0 14 -1
1 -10 -9 -6 -10 -10 -3 -10 6 0 14 4 17 8 8 13 109 13 118 -1 6 -9 8 -8 8 2 0
11 4 9 15 -5 13 -16 14 -16 9 -1 -4 11 -1 17 9 17 9 0 18 -8 20 -17 4 -17 5
-17 6 0 1 23 39 23 57 0 10 -13 13 -14 9 -3 -5 13 5 16 47 18 32 1 55 -3 60
-11 6 -9 8 -8 8 2 0 11 4 9 15 -5 11 -13 13 -14 9 -3 -4 12 1 17 20 17 16 -1
23 -5 19 -12 -3 -6 0 -6 8 2 7 6 20 12 29 12 13 0 13 -1 0 -10 -9 -6 -10 -10
-3 -10 6 0 14 4 17 8 8 13 109 13 118 -1 6 -9 8 -8 8 2 0 11 4 9 15 -5 13 -16
14 -16 9 -1 -4 11 -1 17 9 17 9 0 18 -8 20 -17 4 -17 5 -17 6 0 1 23 39 23 57
0 10 -13 13 -14 9 -3 -5 13 5 16 47 18 32 1 55 -3 60 -11 6 -9 8 -8 8 2 0 11
4 9 15 -5 11 -13 13 -14 9 -3 -4 12 1 17 20 17 16 -1 23 -5 19 -12 -3 -6 0 -6
8 2 7 6 20 12 28 12 14 0 14 -1 1 -10 -12 -7 -10 -9 7 -7 12 0 19 5 17 9 -3 4
2 8 11 8 10 0 14 -5 9 -12 -6 -10 -4 -10 7 0 15 13 43 17 35 4 -3 -5 1 -9 9
-9 8 0 12 4 9 9 -3 4 2 8 11 8 10 0 14 -5 9 -12 -6 -10 -4 -10 7 0 15 13 43
17 35 4 -3 -5 1 -9 9 -9 8 0 12 4 9 9 -3 4 2 8 11 8 10 0 14 -5 9 -12 -6 -10
-4 -10 7 -1 15 14 43 18 35 5 -3 -5 1 -9 9 -9 8 0 12 4 9 9 -3 4 2 8 11 8 10
0 14 -5 9 -12 -6 -10 -4 -10 7 -1 15 14 43 18 35 5 -3 -5 1 -9 9 -9 8 0 12 4
9 9 -3 4 2 8 11 8 10 0 14 -5 9 -12 -6 -10 -4 -10 7 -1 15 14 43 18 35 5 -3
-5 1 -9 9 -9 8 0 12 4 9 9 -3 4 2 8 11 8 10 0 14 -5 9 -12 -6 -10 -4 -10 7 -1
15 14 43 18 35 5 -3 -5 1 -9 9 -9 8 0 12 4 9 9 -3 4 2 8 11 8 10 0 14 -5 9
-12 -6 -10 -4 -10 7 -1 15 14 43 18 35 5 -3 -5 1 -9 9 -9 8 0 12 4 9 9 -3 4 2
8 11 8 10 0 14 -5 9 -12 -6 -10 -4 -10 7 0 15 13 43 17 35 4 -3 -5 1 -9 9 -9
8 0 12 4 9 9 -3 4 2 8 11 8 10 0 14 -5 9 -12 -6 -10 -4 -10 7 -1 15 14 43 18
35 5 -3 -5 1 -9 9 -9 8 0 12 4 9 9 -3 4 2 8 11 8 10 0 14 -5 9 -12 -6 -10 -4
-10 7 0 15 13 43 17 35 4 -3 -5 1 -9 9 -9 8 0 12 4 9 9 -3 4 2 8 11 8 10 0 14
-5 9 -12 -6 -10 -4 -10 7 0 15 13 43 17 35 4 -3 -5 1 -9 9 -9 8 0 12 4 9 9 -3
4 2 8 11 8 10 0 14 -5 9 -12 -6 -10 -4 -10 7 0 15 13 43 17 35 4 -3 -5 1 -9 9
-9 8 0 12 4 9 9 -3 4 2 8 11 8 10 0 14 -5 9 -12 -6 -10 -4 -10 7 -1 15 14 43
18 35 5 -3 -5 1 -9 9 -9 8 0 12 4 9 9 -3 4 2 8 11 8 10 0 14 -5 9 -12 -6 -10
-4 -10 7 0 15 13 43 17 35 4 -3 -5 1 -9 9 -9 8 0 12 4 9 9 -3 4 2 8 11 8 10 0
14 -5 9 -12 -6 -10 -4 -10 7 0 15 13 43 17 35 4 -3 -5 1 -9 9 -9 8 0 12 4 9 9
-3 4 2 8 11 8 10 0 14 -5 9 -12 -6 -10 -4 -10 7 0 17 16 43 16 33 0 -5 -9 -2
-9 9 1 14 11 17 11 17 0 0 -11 2 -11 8 -2 11 17 111 24 137 11 18 -10 19 -10
6 5 -7 10 -9 17 -3 17 6 0 18 3 28 7 11 4 15 3 10 -5 -3 -6 -2 -14 4 -17 6 -4
10 -3 9 2 -4 15 13 43 22 37 5 -3 6 -10 3 -16 -4 -7 -2 -8 5 -4 6 4 9 10 7 14
-2 4 2 13 10 20 13 12 18 8 15 -10 0 -5 4 -8 10 -8 6 0 8 9 4 21 -5 15 -4 19
4 15 6 -4 14 -1 17 8 3 8 12 17 20 20 10 4 13 2 8 -7 -5 -8 -2 -8 9 2 9 7 14
17 11 22 -3 5 2 9 10 9 8 0 13 6 10 13 -2 7 9 21 26 30 17 10 28 23 25 28 -4
5 1 12 9 15 9 3 16 14 16 24 0 10 7 25 15 33 8 8 11 17 8 21 -4 3 0 6 7 6 7 0
10 3 7 7 -4 3 1 12 11 20 9 8 11 12 5 8 -15 -7 -18 11 -3 20 6 3 10 11 10 16
0 6 -4 7 -10 4 -6 -3 -7 1 -4 9 3 9 10 13 15 10 5 -3 6 2 3 11 -4 9 2 26 12
38 12 14 13 17 3 9 -14 -10 -16 -8 -17 18 0 18 6 34 16 41 15 9 15 10 -1 5
-12 -4 -17 -2 -14 6 2 7 -4 41 -13 76 -16 56 -16 61 -1 50 14 -11 14 -11 4 3
-7 9 -10 19 -6 23 4 4 0 4 -10 0 -14 -5 -25 8 -15 19 4 3 -66 101 -74 105 -5
2 -8 10 -8 18 0 9 -4 12 -10 9 -5 -3 -10 -1 -10 4 0 6 5 11 10 11 6 0 10 5 10
12 0 9 -3 9 -12 0 -16 -16 -28 -15 -28 3 0 8 -3 14 -7 13 -15 -4 -53 23 -53
37 0 8 -5 15 -11 15 -5 0 -7 -4 -4 -10 3 -6 -1 -7 -9 -4 -9 3 -13 10 -10 15 4
8 -17 14 -38 10 -8 -1 -12 15 -9 32 1 5 -3 6 -9 2 -6 -3 -8 -11 -5 -16 11 -16
-7 -10 -22 9 -8 9 -11 11 -7 3 5 -10 3 -12 -7 -5 -8 4 -24 7 -36 6 -12 -2 -26
4 -32 15 -6 10 -11 13 -11 8 0 -6 -9 -11 -20 -12 -13 -1 -18 2 -14 9 5 7 2 8
-7 2 -8 -5 -31 -10 -53 -11 -36 -2 -37 -1 -20 14 17 14 17 14 -6 1 -15 -9 -53
-15 -98 -15 -65 -1 -71 1 -55 14 16 13 15 13 -7 0 -19 -11 -51 -14 -125 -12
-55 2 -102 3 -104 4 -2 1 3 9 10 19 13 15 12 16 -3 3 -10 -7 -16 -17 -13 -21
6 -10 -97 -6 -114 5 -10 5 -12 4 -7 -4 8 -12 -33 -9 -55 5 -7 4 -9 3 -5 -4 5
-9 -13 -10 -53 -3 -2 1 2 8 9 16 7 8 10 15 7 15 -2 0 -10 -6 -16 -13z"/>
<path d="M8373 2245 c0 -8 4 -12 9 -9 5 3 6 10 3 15 -9 13 -12 11 -12 -6z"/>
<path d="M8469 2243 c-13 -16 -12 -17 4 -4 16 13 21 21 13 21 -2 0 -10 -8 -17
-17z"/>
<path d="M8589 2243 c-13 -16 -12 -17 4 -4 16 13 21 21 13 21 -2 0 -10 -8 -17
-17z"/>
<path d="M8793 2245 c0 -8 4 -15 9 -15 4 0 8 4 8 9 0 6 -4 12 -8 15 -5 3 -9
-1 -9 -9z"/>
<path d="M7710 2240 c0 -5 5 -10 10 -10 6 0 10 5 10 10 0 6 -4 10 -10 10 -5 0
-10 -4 -10 -10z"/>
<path d="M7747 2239 c7 -7 15 -10 18 -7 3 3 -2 9 -12 12 -14 6 -15 5 -6 -5z"/>
<path d="M7870 2240 c0 -5 5 -10 10 -10 6 0 10 5 10 10 0 6 -4 10 -10 10 -5 0
-10 -4 -10 -10z"/>
<path d="M7907 2239 c7 -7 15 -10 18 -7 3 3 -2 9 -12 12 -14 6 -15 5 -6 -5z"/>
<path d="M8670 2240 c0 -5 5 -10 10 -10 6 0 10 5 10 10 0 6 -4 10 -10 10 -5 0
-10 -4 -10 -10z"/>
<path d="M8707 2239 c7 -7 15 -10 18 -7 3 3 -2 9 -12 12 -14 6 -15 5 -6 -5z"/>
<path d="M8830 2240 c0 -5 5 -10 10 -10 6 0 10 5 10 10 0 6 -4 10 -10 10 -5 0
-10 -4 -10 -10z"/>
<path d="M8867 2239 c7 -7 15 -10 18 -7 3 3 -2 9 -12 12 -14 6 -15 5 -6 -5z"/>
<path d="M9073 2235 c0 -8 4 -12 9 -9 5 3 6 10 3 15 -9 13 -12 11 -12 -6z"/>
<path d="M4966 2213 c-6 -14 -5 -15 5 -6 7 7 10 15 7 18 -3 3 -9 -2 -12 -12z"/>
<path d="M9270 2150 c-9 -6 -10 -10 -3 -10 6 0 15 5 18 10 8 12 4 12 -15 0z"/>
<path d="M4786 2142 c-3 -4 4 -9 15 -9 23 -2 25 3 4 10 -8 4 -16 3 -19 -1z"/>
<path d="M4730 2060 c0 -5 5 -10 11 -10 5 0 7 5 4 10 -3 6 -8 10 -11 10 -2 0
-4 -4 -4 -10z"/>
<path d="M9390 2021 c0 -6 4 -12 8 -15 5 -3 9 1 9 9 0 8 -4 15 -9 15 -4 0 -8
-4 -8 -9z"/>
<path d="M9480 1875 c-7 -9 -11 -17 -9 -20 3 -2 10 5 17 15 14 24 10 26 -8 5z"/>
<path d="M9354 1409 c-3 -6 -2 -15 3 -20 5 -5 9 -1 9 11 0 23 -2 24 -12 9z"/>
<path d="M9280 1320 c-9 -6 -10 -10 -3 -10 6 0 15 5 18 10 8 12 4 12 -15 0z"/>
<path d="M4869 1283 c-13 -17 -13 -17 6 -3 11 8 22 16 24 17 2 2 0 3 -6 3 -6
0 -17 -8 -24 -17z"/>
<path d="M5075 1240 c-3 -5 -1 -10 4 -10 6 0 11 5 11 10 0 6 -2 10 -4 10 -3 0
-8 -4 -11 -10z"/>
<path d="M9030 1238 c0 -4 4 -8 9 -8 6 0 12 4 15 8 3 5 -1 9 -9 9 -8 0 -15 -4
-15 -9z"/>
<path d="M5310 1230 c0 -5 5 -10 11 -10 5 0 7 5 4 10 -3 6 -8 10 -11 10 -2 0
-4 -4 -4 -10z"/>
<path d="M5550 1230 c0 -5 5 -10 11 -10 5 0 7 5 4 10 -3 6 -8 10 -11 10 -2 0
-4 -4 -4 -10z"/>
<path d="M5790 1231 c0 -6 4 -13 10 -16 6 -3 7 1 4 9 -7 18 -14 21 -14 7z"/>
<path d="M6030 1230 c0 -5 5 -10 11 -10 5 0 7 5 4 10 -3 6 -8 10 -11 10 -2 0
-4 -4 -4 -10z"/>
<path d="M6270 1231 c0 -6 4 -13 10 -16 6 -3 7 1 4 9 -7 18 -14 21 -14 7z"/>
<path d="M6510 1230 c0 -5 5 -10 11 -10 5 0 7 5 4 10 -3 6 -8 10 -11 10 -2 0
-4 -4 -4 -10z"/>
<path d="M6750 1231 c0 -6 4 -13 10 -16 6 -3 7 1 4 9 -7 18 -14 21 -14 7z"/>
<path d="M6990 1230 c0 -5 5 -10 11 -10 5 0 7 5 4 10 -3 6 -8 10 -11 10 -2 0
-4 -4 -4 -10z"/>
<path d="M7230 1231 c0 -6 4 -13 10 -16 6 -3 7 1 4 9 -7 18 -14 21 -14 7z"/>
<path d="M7470 1230 c0 -5 5 -10 11 -10 5 0 7 5 4 10 -3 6 -8 10 -11 10 -2 0
-4 -4 -4 -10z"/>
<path d="M8996 1227 c3 -10 9 -15 12 -12 3 3 0 11 -7 18 -10 9 -11 8 -5 -6z"/>
</g>
</svg>
